<svg width="32" height="32" viewBox="0 0 32 32" fill="none" xmlns="http://www.w3.org/2000/svg">
<path d="M26.2898 9.48134L22.5186 5.7101C21.9979 5.18941 21.1537 5.18941 20.633 5.7101L16.8617 9.48134C16.341 10.002 16.341 10.8463 16.8617 11.367L20.633 15.1382C21.1537 15.6589 21.9979 15.6589 22.5186 15.1382L26.2898 11.367C26.8105 10.8463 26.8105 10.002 26.2898 9.48134Z" stroke="#3A4861" stroke-width="2" stroke-linecap="round" stroke-linejoin="round"/>
<path d="M15.1384 20.6332L11.3672 16.862C10.8465 16.3413 10.0023 16.3413 9.48158 16.862L5.71035 20.6332C5.18965 21.1539 5.18965 21.9981 5.71035 22.5188L9.48158 26.2901C10.0023 26.8107 10.8465 26.8107 11.3672 26.2901L15.1384 22.5188C15.6591 21.9981 15.6591 21.1539 15.1384 20.6332Z" stroke="#3A4861" stroke-width="2" stroke-linecap="round" stroke-linejoin="round"/>
<path d="M23.1348 21.2263L25.757 18.2889L28.6945 20.9111" stroke="#3A4861" stroke-width="2" stroke-linecap="round" stroke-linejoin="round"/>
<path d="M17.6064 26.2332C18.7158 26.6316 19.9146 26.7108 21.0667 26.4618C22.2189 26.2128 23.278 25.6456 24.1238 24.8246C24.9696 24.0037 25.5682 22.9619 25.8515 21.8178C26.1347 20.6736 26.0913 19.4729 25.7262 18.3522" stroke="#3A4861" stroke-width="2" stroke-linecap="round" stroke-linejoin="round"/>
<path d="M8.60889 10.9761L5.98664 13.9135L3.04919 11.2913" stroke="#3A4861" stroke-width="2" stroke-linecap="round" stroke-linejoin="round"/>
<path d="M14.1377 5.96924C13.0284 5.57084 11.8295 5.49163 10.6774 5.74062C9.52529 5.9896 8.46613 6.5568 7.62031 7.37775C6.7745 8.19869 6.17594 9.24044 5.89268 10.3846C5.60942 11.5288 5.65282 12.7295 6.01794 13.8502" stroke="#3A4861" stroke-width="2" stroke-linecap="round" stroke-linejoin="round"/>
</svg>
