<svg width="20" height="16" viewBox="0 0 20 16" fill="none" xmlns="http://www.w3.org/2000/svg">
<path d="M17.2503 2.375C17.2503 2.375 15.1722 0.692188 12.7189 0.5L12.4977 0.957969C14.7154 1.52 15.7332 2.32344 16.7972 3.3125C14.9633 2.34406 13.1539 1.4375 9.99999 1.4375C6.84609 1.4375 5.03667 2.34406 3.20279 3.3125C4.26678 2.32344 5.47759 1.43 7.50225 0.957969L7.28111 0.5C4.70724 0.750781 2.74964 2.375 2.74964 2.375C2.74964 2.375 0.429078 5.85594 0.0307617 12.6875C2.369 15.478 5.92167 15.5 5.92167 15.5L6.66483 14.4763C5.40327 14.0225 3.98039 13.213 2.74964 11.75C4.21693 12.8984 6.43146 14.0938 9.99999 14.0938C13.5685 14.0938 15.7831 12.8984 17.2503 11.75C16.02 13.213 14.5972 14.0225 13.3352 14.4763L14.0783 15.5C14.0783 15.5 17.631 15.478 19.9692 12.6875C19.5709 5.85594 17.2503 2.375 17.2503 2.375ZM7.05454 10.8125C6.17815 10.8125 5.46852 9.97344 5.46852 8.9375C5.46852 7.90156 6.17815 7.0625 7.05454 7.0625C7.93092 7.0625 8.64055 7.90156 8.64055 8.9375C8.64055 9.97344 7.93092 10.8125 7.05454 10.8125ZM12.9454 10.8125C12.0691 10.8125 11.3594 9.97344 11.3594 8.9375C11.3594 7.90156 12.0691 7.0625 12.9454 7.0625C13.8218 7.0625 14.5315 7.90156 14.5315 8.9375C14.5315 9.97344 13.8218 10.8125 12.9454 10.8125Z" fill="#FFFFFF"/>
</svg>
