<svg width="24" height="24" viewBox="0 0 24 24" fill="none" xmlns="http://www.w3.org/2000/svg">
<path d="M19.2508 6.375C19.2508 6.375 17.1727 4.69219 14.7194 4.5L14.4982 4.95797C16.7159 5.52 17.7337 6.32344 18.7977 7.3125C16.9638 6.34406 15.1544 5.4375 12.0005 5.4375C8.84658 5.4375 7.03716 6.34406 5.20328 7.3125C6.26727 6.32344 7.47808 5.43 9.50274 4.95797L9.2816 4.5C6.70773 4.75078 4.75013 6.375 4.75013 6.375C4.75013 6.375 2.42957 9.85594 2.03125 16.6875C4.36949 19.478 7.92216 19.5 7.92216 19.5L8.66532 18.4763C7.40376 18.0225 5.98088 17.213 4.75013 15.75C6.21742 16.8984 8.43195 18.0938 12.0005 18.0938C15.569 18.0938 17.7835 16.8984 19.2508 15.75C18.0205 17.213 16.5977 18.0225 15.3356 18.4763L16.0788 19.5C16.0788 19.5 19.6315 19.478 21.9697 16.6875C21.5714 9.85594 19.2508 6.375 19.2508 6.375ZM9.05503 14.8125C8.17864 14.8125 7.46901 13.9734 7.46901 12.9375C7.46901 11.9016 8.17864 11.0625 9.05503 11.0625C9.93141 11.0625 10.641 11.9016 10.641 12.9375C10.641 13.9734 9.93141 14.8125 9.05503 14.8125ZM14.9459 14.8125C14.0695 14.8125 13.3599 13.9734 13.3599 12.9375C13.3599 11.9016 14.0695 11.0625 14.9459 11.0625C15.8223 11.0625 16.5319 11.9016 16.5319 12.9375C16.5319 13.9734 15.8223 14.8125 14.9459 14.8125Z" fill="#1969FF"/>
</svg>
