<svg width="108" height="28" viewBox="0 0 108 28" fill="none" xmlns="http://www.w3.org/2000/svg">
<path fill-rule="evenodd" clip-rule="evenodd" d="M9.84827 0.268218L2.894 3.91745C2.4749 4.13737 2.25971 4.45012 2.22882 4.78509H2.22571V4.8318C2.22466 4.8573 2.22467 4.88291 2.22571 4.9086L2.22571 23.0348C2.22453 23.06 2.22462 23.0907 2.22571 23.1279C2.23628 23.4878 2.44957 23.8493 2.894 24.0826L9.84827 27.7318C10.5298 28.0894 11.5668 28.0894 12.2483 27.7318L19.2026 24.0826C19.6489 23.8484 19.8764 23.4894 19.8852 23.1279H19.8855V4.89476V4.89291V4.78509H19.8788C19.8384 4.45376 19.613 4.13283 19.2026 3.91745L12.2483 0.268218C11.5668 -0.0894061 10.5298 -0.0894061 9.84827 0.268218ZM3.32032 23.0919L9.84827 26.4992C10.2415 26.7079 10.6506 26.9112 11.0483 26.9125C11.4145 26.9137 11.7708 26.7402 12.1308 26.5648L12.2004 26.5309L18.7908 23.0625V15.0184L12.2483 18.4516C11.5668 18.8092 10.5298 18.8092 9.84827 18.4516L3.32032 15.0261V23.0919ZM3.32032 12.6259L9.54424 9.35992L3.32032 6.09394V12.6259ZM12.5523 9.35992L18.7908 6.08628V12.6336L12.5523 9.35992ZM11.7371 1.22985L18.6914 4.87908L18.7072 4.88763L18.7181 4.89384L18.7122 4.89723C18.7056 4.90097 18.6987 4.90477 18.6914 4.9086L11.7371 8.55783C11.3754 8.7476 10.7211 8.7476 10.3595 8.55783L3.40522 4.9086L3.38937 4.90005L3.37845 4.89384L3.38433 4.89044C3.39096 4.8867 3.39792 4.88291 3.40522 4.87908L10.3595 1.22985C10.7211 1.04008 11.3754 1.04008 11.7371 1.22985ZM11.7371 10.162L18.6914 13.8112L18.7072 13.8198L18.7181 13.826L18.7122 13.8294C18.7056 13.8331 18.6987 13.8369 18.6914 13.8408L11.7371 17.49C11.6938 17.5127 11.6463 17.5327 11.5956 17.55V10.102C11.6463 10.1193 11.6938 10.1393 11.7371 10.162ZM10.501 10.102C10.4503 10.1193 10.4028 10.1393 10.3595 10.162L3.40522 13.8112C3.39792 13.8151 3.39096 13.8189 3.38433 13.8226L3.37845 13.826L3.38937 13.8322L3.40522 13.8408L10.3595 17.49C10.4028 17.5127 10.4503 17.5327 10.501 17.55V10.102ZM19.8184 1.63002L19.2519 2.56055L19.6469 2.79738L19.7755 2.87565C19.8846 2.94273 19.9742 2.99982 20.0556 3.0543L20.0767 3.06855C20.4474 3.31936 20.6504 3.52549 20.7857 3.79521C20.9489 4.12063 21.0311 4.58255 21.0311 5.28534H22.1258L22.1256 5.23646C22.1179 3.63163 21.7239 2.86016 20.6675 2.15257C20.5686 2.08637 20.4627 2.01902 20.3349 1.94063L20.2606 1.8953L19.8184 1.63002ZM2.87385 25.4539L2.30731 26.3845L1.86521 26.1192L1.7909 26.0739C1.66307 25.9955 1.55712 25.9281 1.45829 25.8619C0.401878 25.1543 0.00789162 24.3829 0.000117525 22.778L0 22.7292H1.09461C1.09461 23.432 1.17682 23.8939 1.34006 24.2193C1.47535 24.489 1.67836 24.6951 2.04902 24.946L2.07018 24.9602C2.15153 25.0147 2.24114 25.0718 2.35022 25.1389L2.47885 25.2171L2.87385 25.4539Z" fill="white"/>
<path fill-rule="evenodd" clip-rule="evenodd" d="M33.2457 12.1337V22.3632H30.8141V12.1337H28.4788V10.2608H30.8141V8.72394C30.8141 7.37923 31.1551 6.35468 31.8373 5.65031C32.5194 4.94594 33.4784 4.59375 34.7143 4.59375C35.3563 4.59375 35.9422 4.67379 36.4718 4.83388V6.82693C36.0385 6.69887 35.6292 6.63483 35.244 6.63483C33.9118 6.63483 33.2457 7.39523 33.2457 8.91604V10.2608H36.0866V12.1337H33.2457ZM45.5603 21.9549C44.8621 22.3391 44.0476 22.5312 43.1166 22.5312C42.0413 22.5312 41.0983 22.2751 40.2878 21.7628C39.4772 21.2506 38.8473 20.5262 38.3979 19.5897C37.9484 18.6532 37.7237 17.5606 37.7237 16.312C37.7237 15.0633 37.9525 13.9587 38.4099 12.9982C38.8673 12.0377 39.5053 11.2933 40.3239 10.765C41.1425 10.2367 42.0734 9.9726 43.1166 9.9726C44.0476 9.9726 44.8581 10.1687 45.5483 10.5609C46.2384 10.9531 46.7681 11.5094 47.1373 12.2298V10.2608H49.5448V22.3632H47.1373V20.2981C46.7841 21.0184 46.2585 21.5707 45.5603 21.9549ZM43.6945 20.6102C42.587 20.6102 41.7243 20.234 41.1063 19.4816C40.4884 18.7292 40.1794 17.6727 40.1794 16.312C40.1794 14.9352 40.4884 13.8587 41.1063 13.0822C41.7243 12.3058 42.579 11.9176 43.6704 11.9176C44.7779 11.9176 45.6325 12.2938 46.2344 13.0462C46.8363 13.7986 47.1373 14.8712 47.1373 16.2639C47.1373 17.6407 46.8363 18.7092 46.2344 19.4696C45.6325 20.23 44.7859 20.6102 43.6945 20.6102ZM55.5155 15.4715V22.3632H53.108V13.6706C53.108 12.4059 53.0438 11.2693 52.9154 10.2608H55.1785L55.3951 12.3499C55.7803 11.5815 56.3381 10.9931 57.0684 10.5849C57.7987 10.1767 58.6293 9.9726 59.5602 9.9726C62.4653 9.9726 63.9179 11.5895 63.9179 14.8232V22.3632H61.4862V14.9672C61.4862 13.9107 61.2816 13.1423 60.8723 12.662C60.463 12.1818 59.809 11.9416 58.9102 11.9416C57.8829 11.9416 57.0604 12.2618 56.4424 12.9022C55.8245 13.5425 55.5155 14.3989 55.5155 15.4715ZM72.0554 22.5312C72.7295 22.5312 73.3314 22.4432 73.861 22.2671V20.2981C73.4277 20.4261 73.0023 20.4902 72.585 20.4902C71.943 20.4902 71.4414 20.3181 71.0803 19.9739C70.7192 19.6297 70.5386 19.0414 70.5386 18.209V12.1337H73.8851V10.2608H70.5386V6.3947L68.107 7.23515V10.2608H65.7476V12.1337H68.107V18.4011C68.107 19.7458 68.4521 20.7703 69.1422 21.4747C69.8324 22.1791 70.8034 22.5312 72.0554 22.5312ZM84.4542 21.7628C83.5554 22.2751 82.5202 22.5312 81.3485 22.5312C80.1608 22.5312 79.1175 22.2751 78.2187 21.7628C77.3199 21.2506 76.6257 20.5222 76.1362 19.5777C75.6466 18.6332 75.4019 17.5286 75.4019 16.2639C75.4019 14.9993 75.6466 13.8907 76.1362 12.9382C76.6257 11.9857 77.3199 11.2533 78.2187 10.741C79.1175 10.2287 80.1608 9.9726 81.3485 9.9726C82.5202 9.9726 83.5554 10.2287 84.4542 10.741C85.3531 11.2533 86.0472 11.9857 86.5368 12.9382C87.0263 13.8907 87.2711 14.9993 87.2711 16.2639C87.2711 17.5286 87.0263 18.6332 86.5368 19.5777C86.0472 20.5222 85.3531 21.2506 84.4542 21.7628ZM81.3244 20.6102C80.217 20.6102 79.3623 20.242 78.7604 19.5056C78.1585 18.7693 77.8576 17.6887 77.8576 16.2639C77.8576 14.8712 78.1625 13.7986 78.7724 13.0462C79.3823 12.2938 80.241 11.9176 81.3485 11.9176C82.4399 11.9176 83.2866 12.2938 83.8885 13.0462C84.4904 13.7986 84.7913 14.8712 84.7913 16.2639C84.7913 17.6887 84.4944 18.7693 83.9005 19.5056C83.3066 20.242 82.448 20.6102 81.3244 20.6102ZM92.5195 15.5195V22.3632H90.112V13.6706C90.112 12.4059 90.0478 11.2693 89.9194 10.2608H92.1825L92.3992 12.2778C92.7523 11.5414 93.2578 10.9731 93.9159 10.5729C94.574 10.1727 95.3444 9.9726 96.2271 9.9726C98.105 9.9726 99.3329 10.749 99.9107 12.3018C100.28 11.5815 100.822 11.0132 101.536 10.5969C102.25 10.1807 103.057 9.9726 103.955 9.9726C106.652 9.9726 108 11.5895 108 14.8232V22.3632H105.568V14.9432C105.568 13.9027 105.388 13.1423 105.027 12.662C104.666 12.1818 104.084 11.9416 103.281 11.9416C102.35 11.9416 101.616 12.2618 101.078 12.9022C100.541 13.5425 100.272 14.415 100.272 15.5195V22.3632H97.8402V14.9432C97.8402 13.9027 97.6596 13.1423 97.2985 12.662C96.9374 12.1818 96.3556 11.9416 95.553 11.9416C94.6221 11.9416 93.8838 12.2618 93.3381 12.9022C92.7924 13.5425 92.5195 14.415 92.5195 15.5195Z" fill="white"/>
</svg>
