<svg width="57" height="72" viewBox="0 0 57 72" fill="none" xmlns="http://www.w3.org/2000/svg">
<path fill-rule="evenodd" clip-rule="evenodd" d="M25.246 1.15776L7.5731 10.4174C6.50851 10.9752 5.96166 11.7683 5.88278 12.6178H5.87093V59.0281C5.87093 59.0287 5.87093 59.0292 5.87093 59.0298V59.1614H5.87311C5.90019 60.0744 6.44223 60.9915 7.57142 61.5831L25.2443 70.8428C26.9762 71.7502 29.6115 71.7502 31.3435 70.8428L49.0163 61.5831C50.1503 60.989 50.7285 60.0783 50.751 59.1614H50.7532V12.9289C50.7535 12.9062 50.7535 12.8836 50.7532 12.861V12.6178H50.7365C50.6334 11.7775 50.0606 10.9637 49.018 10.4174L31.3451 1.15776C29.6132 0.250312 26.9779 0.250312 25.246 1.15776ZM8.65266 59.0682L25.2443 67.7152C26.2435 68.2448 27.2832 68.7605 28.2939 68.7638C29.2246 68.7669 30.1298 68.3266 31.0448 67.8816L31.0448 67.8816L31.2216 67.7957L47.9714 58.9941V38.5873L31.3432 47.2996C29.6112 48.207 26.9759 48.207 25.244 47.2996L8.65266 38.6066V59.0682ZM8.65266 32.5182L24.475 24.2282L8.65266 15.9381V32.5182ZM47.9714 15.9208V32.5376L32.1141 24.2292L47.9714 15.9208ZM30.043 3.59547L47.7159 12.8551L47.7562 12.8768L47.7839 12.8926L47.769 12.9012C47.7521 12.9107 47.7344 12.9203 47.7159 12.93L30.043 22.1897C29.124 22.6712 27.4612 22.6712 26.5421 22.1897L8.86928 12.93L8.829 12.9083L8.80126 12.8926L8.81622 12.884C8.83305 12.8745 8.85074 12.8648 8.86928 12.8551L26.5421 3.59547C27.4612 3.11394 29.124 3.11394 30.043 3.59547ZM30.0428 26.263L47.7156 35.5226L47.7559 35.5443L47.7837 35.5601L47.7687 35.5687C47.7577 35.5749 47.7463 35.5812 47.7345 35.5875L47.7156 35.5975L30.0428 44.8572C29.9322 44.9151 29.8108 44.9661 29.6812 45.0101V26.11C29.8108 26.154 29.9322 26.205 30.0428 26.263ZM26.8995 26.1114C26.7714 26.1551 26.6514 26.2056 26.5419 26.263L8.86903 35.5226C8.85048 35.5323 8.8328 35.542 8.81596 35.5515L8.801 35.5601L8.82875 35.5758L8.86903 35.5975L26.5419 44.8572C26.6514 44.9145 26.7714 44.9651 26.8995 45.0088V26.1114ZM50.5782 4.61645L49.1385 6.9776L50.1423 7.57853L50.4692 7.77714C50.7464 7.94734 50.9741 8.0922 51.1808 8.23045L51.2346 8.2666C52.1766 8.90302 52.6925 9.42605 53.0363 10.1105C53.4511 10.9362 53.66 12.1083 53.66 13.8916H56.4418L56.4415 13.7675C56.4217 9.69537 55.4205 7.73784 52.7358 5.94237C52.4847 5.77441 52.2154 5.60351 51.8906 5.40459L51.7017 5.28958L50.5782 4.61645ZM7.52108 65.0627L6.08134 67.4239L4.95782 66.7508L4.76898 66.6357C4.44412 66.4368 4.17487 66.2659 3.92372 66.098C1.23907 64.3025 0.237829 62.345 0.218073 58.2728L0.217773 58.1488H2.99951C2.99951 59.9321 3.20843 61.1041 3.62326 61.9299C3.96708 62.6143 4.48297 63.1373 5.42495 63.7737L5.47872 63.8099C5.68544 63.9481 5.91317 64.093 6.19037 64.2632L6.51727 64.4618L7.52108 65.0627Z" fill="#F5F5F5"/>
</svg>
