<svg width="33" height="32" viewBox="0 0 33 32" fill="none" xmlns="http://www.w3.org/2000/svg">
<path fill-rule="evenodd" clip-rule="evenodd" d="M15.7013 4.2299L9.74049 7.35781C9.38131 7.5463 9.19686 7.81433 9.17035 8.1014C9.14482 8.1014 9.16327 23.6649 9.16765 23.8211V23.8238C9.17671 24.1323 9.35961 24.4423 9.74055 24.6422L15.7014 27.7701C16.2855 28.0766 17.1744 28.0766 17.7585 27.7701L23.7193 24.6422C24.1019 24.4414 24.2969 24.1337 24.3044 23.8238L24.2989 8.1014C24.2643 7.81745 24.071 7.5424 23.7193 7.35781L17.7585 4.2299C17.1743 3.92337 16.2855 3.92337 15.7013 4.2299ZM10.1059 23.793L15.7014 26.7136C16.0384 26.8925 16.389 27.0667 16.7299 27.0678C17.0439 27.0689 17.3492 26.9201 17.6578 26.7698L17.7174 26.7408L23.3664 23.7679V16.8729L17.7586 19.8156C17.1744 20.1222 16.2855 20.1222 15.7014 19.8156L10.1059 16.8794V23.793ZM10.1059 14.8222L15.4407 12.0228L10.1059 9.22336V14.8222ZM23.3664 9.2168V14.8287L18.0192 12.0227L23.3664 9.2168ZM17.3203 5.05413L23.2811 8.18204L23.2947 8.18936L23.304 8.19469L23.299 8.1976C23.2933 8.2008 23.2873 8.20406 23.2811 8.20734L17.3203 11.3352C17.0103 11.4979 16.4495 11.4979 16.1395 11.3352L10.1787 8.20734L10.1651 8.20001L10.1557 8.19469L10.1608 8.19178C10.1665 8.18857 10.1724 8.18532 10.1787 8.18204L16.1395 5.05413C16.4495 4.89146 17.0103 4.89146 17.3203 5.05413ZM17.3203 12.7102L23.2811 15.8381L23.2947 15.8454L23.3041 15.8507L23.299 15.8536L23.293 15.857L23.2811 15.8634L17.3203 18.9913C17.2832 19.0108 17.2425 19.0279 17.199 19.0427V12.6587C17.2425 12.6735 17.2832 12.6907 17.3203 12.7102ZM16.2608 12.6588C16.2173 12.6736 16.1766 12.6907 16.1395 12.7102L10.1787 15.8381C10.1725 15.8414 10.1665 15.8446 10.1608 15.8478L10.1558 15.8507L10.1651 15.8561L10.1787 15.8634L16.1395 18.9913C16.1766 19.0108 16.2173 19.0279 16.2608 19.0427V12.6588Z" fill="#3A4861" stroke="#3A4861" stroke-width="0.8"/>
<path d="M24.2781 5.40625L23.7925 6.20385L24.1311 6.40684L24.2413 6.47393C24.3348 6.53143 24.4116 6.58036 24.4813 6.62706L24.4995 6.63927C24.8172 6.85425 24.9912 7.03093 25.1072 7.26213C25.2471 7.54106 25.3175 7.93699 25.3175 8.53938H26.2558L26.2557 8.49748C26.249 7.12191 25.9113 6.46066 25.0058 5.85415C24.9211 5.79741 24.8303 5.73968 24.7207 5.67248L24.657 5.63363L24.2781 5.40625Z" fill="#1969FF" stroke="#1969FF" stroke-width="0.4"/>
<path d="M9.60539 25.671L9.11979 26.4686L8.74084 26.2412L8.67715 26.2023C8.56758 26.1352 8.47676 26.0774 8.39205 26.0207C7.48656 25.4142 7.14885 24.7529 7.14219 23.3774L7.14209 23.3354H8.08033C8.08033 23.9378 8.1508 24.3338 8.29071 24.6127C8.40668 24.8439 8.58068 25.0206 8.8984 25.2356L8.91653 25.2478C8.98626 25.2945 9.06307 25.3434 9.15656 25.4009L9.26682 25.468L9.60539 25.671Z" fill="#1969FF" stroke="#1969FF" stroke-width="0.4"/>
</svg>
