<svg width="32" height="32" viewBox="0 0 32 32" fill="none" xmlns="http://www.w3.org/2000/svg">
<path d="M26.9274 27.2614L17.8501 18.0475M26.9274 18.0475L17.85 27.2615M5.24258 4.73853H13.3114C13.5899 4.73853 13.8157 4.9677 13.8157 5.25041V13.4406C13.8157 13.7233 13.5899 13.9525 13.3114 13.9525H5.24258C4.96406 13.9525 4.73828 13.7233 4.73828 13.4406V5.25041C4.73828 4.9677 4.96406 4.73853 5.24258 4.73853ZM22.8256 4.99447L27.1929 12.6727C27.387 13.014 27.1444 13.4406 26.7562 13.4406H18.0215C17.6332 13.4406 17.3906 13.014 17.5847 12.6727L21.9521 4.99447C22.1462 4.65321 22.6315 4.65321 22.8256 4.99447ZM13.8157 22.6545C13.8157 25.1989 11.7836 27.2615 9.27697 27.2615C6.77032 27.2615 4.73828 25.1989 4.73828 22.6545C4.73828 20.1102 6.77032 18.0475 9.27697 18.0475C11.7836 18.0475 13.8157 20.1102 13.8157 22.6545Z" stroke="#3A4861" stroke-width="2" stroke-linecap="round" stroke-linejoin="round"/>
</svg>
