<svg width="32" height="32" viewBox="0 0 32 32" fill="none" xmlns="http://www.w3.org/2000/svg">
<path d="M10.6667 28C9.20004 28 7.94449 27.4778 6.90004 26.4333C5.8556 25.3889 5.33337 24.1333 5.33337 22.6667V9.33333C5.33337 7.86667 5.8556 6.61111 6.90004 5.56667C7.94449 4.52222 9.20004 4 10.6667 4H12.3334H14.3334H17.6667H19.6667H21.3334C22.8 4 24.0556 4.52222 25.1 5.56667C26.1445 6.61111 26.6667 7.86667 26.6667 9.33333V22.6667C26.6667 24.1333 26.1445 25.3889 25.1 26.4333C24.0556 27.4778 22.8 28 21.3334 28H10.6667ZM10.6667 26H21.3334C22.2667 26 23.0556 25.6778 23.7 25.0333C24.3445 24.3889 24.6667 23.6 24.6667 22.6667V9.33333C24.6667 8.4 24.3445 7.61111 23.7 6.96667C23.0556 6.32222 22.2667 6 21.3334 6H10.6667C9.73337 6 8.94449 6.32222 8.30004 6.96667C7.6556 7.61111 7.33337 8.4 7.33337 9.33333V22.6667C7.33337 23.6 7.6556 24.3889 8.30004 25.0333C8.94449 25.6778 9.73337 26 10.6667 26Z" fill="#3A4861"/>
<path d="M17.8834 21.0503C17.3612 21.5725 16.7334 21.8337 16 21.8337C15.2667 21.8337 14.6389 21.5725 14.1167 21.0503C13.5945 20.5281 13.3334 19.9114 13.3334 19.2003C13.3334 18.6225 13.5 18.1281 13.8334 17.717C14.1667 17.3059 14.8889 16.4559 16 15.167C17.1112 16.4337 17.8334 17.2781 18.1667 17.7003C18.5 18.1225 18.6667 18.6225 18.6667 19.2003C18.6667 19.9114 18.4056 20.5281 17.8834 21.0503Z" fill="#2DC0CA"/>
<path d="M21.3333 11.333H10.6666V9.33301H21.3333V11.333Z" fill="#2DC0CA"/>
</svg>
