<svg width="32" height="32" viewBox="0 0 32 32" fill="none" xmlns="http://www.w3.org/2000/svg">
<path d="M16 4.5C9.37 4.5 4 9.78 4 16.292C4 21.503 7.438 25.922 12.205 27.48C12.805 27.591 13.025 27.226 13.025 26.913C13.025 26.633 13.015 25.891 13.01 24.908C9.672 25.619 8.968 23.326 8.968 23.326C8.422 21.965 7.633 21.601 7.633 21.601C6.546 20.87 7.717 20.885 7.717 20.885C8.922 20.967 9.555 22.1 9.555 22.1C10.625 23.903 12.364 23.382 13.05 23.081C13.158 22.318 13.467 21.799 13.81 21.504C11.145 21.209 8.344 20.195 8.344 15.677C8.344 14.39 8.809 13.338 9.579 12.513C9.444 12.215 9.039 11.016 9.684 9.392C9.684 9.392 10.689 9.076 12.984 10.601C13.944 10.339 14.964 10.209 15.984 10.203C17.004 10.209 18.024 10.339 18.984 10.601C21.264 9.076 22.269 9.392 22.269 9.392C22.914 11.016 22.509 12.215 22.389 12.513C23.154 13.338 23.619 14.39 23.619 15.677C23.619 20.207 20.814 21.204 18.144 21.494C18.564 21.848 18.954 22.571 18.954 23.676C18.954 25.254 18.939 26.522 18.939 26.905C18.939 27.214 19.149 27.583 19.764 27.465C24.565 25.917 28 21.495 28 16.292C28 9.78 22.627 4.5 16 4.5Z" fill="#3A4861"/>
</svg>
