<svg width="20" height="20" viewBox="0 0 20 20" fill="none" xmlns="http://www.w3.org/2000/svg">
<path fill-rule="evenodd" clip-rule="evenodd" d="M5.83329 2.66669C4.08439 2.66669 2.66663 4.08445 2.66663 5.83335V14.1667C2.66663 15.9156 4.08439 17.3334 5.83329 17.3334H14.1666C15.9155 17.3334 17.3333 15.9156 17.3333 14.1667V5.83335C17.3333 4.08445 15.9155 2.66669 14.1666 2.66669H5.83329ZM0.666626 5.83335C0.666626 2.97988 2.97982 0.666687 5.83329 0.666687H14.1666C17.0201 0.666687 19.3333 2.97988 19.3333 5.83335V14.1667C19.3333 17.0202 17.0201 19.3334 14.1666 19.3334H5.83329C2.97982 19.3334 0.666626 17.0202 0.666626 14.1667V5.83335ZM10.3783 7.65592C9.89282 7.58393 9.397 7.66685 8.96137 7.89289C8.52574 8.11893 8.17247 8.47658 7.95182 8.91497C7.73117 9.35336 7.65436 9.85016 7.73234 10.3347C7.81031 10.8193 8.03908 11.2669 8.38612 11.6139C8.73316 11.961 9.18079 12.1897 9.66534 12.2677C10.1499 12.3457 10.6467 12.2689 11.0851 12.0482C11.5235 11.8276 11.8811 11.4743 12.1072 11.0387C12.3332 10.603 12.4161 10.1072 12.3441 9.62175C12.2707 9.12655 12.0399 8.66809 11.686 8.3141C11.332 7.96011 10.8735 7.72935 10.3783 7.65592ZM8.04023 6.11765C8.84926 5.69786 9.77006 5.54386 10.6717 5.67755C11.5913 5.81393 12.4427 6.24247 13.1002 6.89988C13.7576 7.5573 14.1861 8.40872 14.3225 9.32838C14.4562 10.23 14.3022 11.1508 13.8824 11.9598C13.4626 12.7688 12.7984 13.4249 11.9843 13.8347C11.1701 14.2445 10.2475 14.3871 9.3476 14.2423C8.44771 14.0975 7.6164 13.6726 6.97191 13.0281C6.32741 12.3836 5.90254 11.5523 5.75774 10.6524C5.61293 9.75257 5.75557 8.82994 6.16535 8.01579C6.57513 7.20164 7.2312 6.53744 8.04023 6.11765ZM14.5833 4.41669C14.031 4.41669 13.5833 4.8644 13.5833 5.41669C13.5833 5.96897 14.031 6.41669 14.5833 6.41669H14.5916C15.1439 6.41669 15.5916 5.96897 15.5916 5.41669C15.5916 4.8644 15.1439 4.41669 14.5916 4.41669H14.5833Z" fill="#FFFFFF"/>
</svg>
