<svg width="29" height="48" viewBox="0 0 29 48" fill="none" xmlns="http://www.w3.org/2000/svg">
<path d="M14.5008 0C12.7008 0 10.9008 0.4 9.30078 1.1C7.50078 1.8 6.00078 2.8 4.80078 4.1C3.50078 5.4 2.50078 6.9 1.80078 8.6C1.10078 10.3 0.800781 12.1 0.800781 13.9V18.5H11.9008V11.9C11.9008 11.6 12.0008 11.3 12.1008 11C12.2008 10.7 12.4008 10.5 12.6008 10.2C12.8008 10 13.1008 9.8 13.4008 9.7C13.7008 9.6 14.0008 9.5 14.3008 9.5H14.7008C15.0008 9.5 15.3008 9.6 15.6008 9.7C15.9008 9.8 16.1008 10 16.4008 10.2C16.6008 10.4 16.8008 10.7 16.9008 11C17.0008 11.3 17.1008 11.6 17.1008 11.9V29.7C18.6008 29.7 20.0008 29.4 21.3008 28.9C22.6008 28.3 23.9008 27.5 24.9008 26.5C25.9008 25.5 26.7008 24.2 27.3008 22.9C27.9008 21.5 28.1008 20.1 28.1008 18.6V14C28.1008 10.3 26.7008 6.8 24.1008 4.2C22.8008 2.9 21.3008 1.9 19.7008 1.2C18.0008 0.4 16.3008 0 14.5008 0ZM14.7008 38.6H14.3008C14.0008 38.6 13.7008 38.5 13.4008 38.4C13.1008 38.3 12.9008 38.1 12.6008 37.9C12.4008 37.7 12.2008 37.4 12.1008 37.1C12.0008 36.8 11.9008 36.5 11.9008 36.2V18.5C10.4008 18.5 9.00078 18.8 7.70078 19.3C6.40078 19.9 5.10078 20.7 4.10078 21.7C3.10078 22.7 2.30078 24 1.70078 25.3C1.10078 26.7 0.800781 28.1 0.800781 29.6V34.1C0.800781 35.9 1.10078 37.7 1.80078 39.4C2.50078 41.1 3.50078 42.6 4.80078 43.9C6.10078 45.2 7.60078 46.2 9.20078 46.9C10.9008 47.6 12.7008 48 14.5008 48C16.3008 48 18.1008 47.6 19.8008 46.9C21.5008 46.2 23.0008 45.2 24.2008 43.9C25.5008 42.6 26.5008 41.1 27.2008 39.4C27.9008 37.7 28.2008 35.9 28.2008 34.1V29.6H17.0008V36.2C17.0008 36.5 16.9008 36.8 16.8008 37.1C16.7008 37.4 16.5008 37.6 16.3008 37.9C16.1008 38.1 15.8008 38.3 15.5008 38.4C15.3008 38.6 15.0008 38.6 14.7008 38.6Z" fill="black"/>
</svg>
