<svg width="32" height="32" viewBox="0 0 32 32" fill="none" xmlns="http://www.w3.org/2000/svg">
<rect x="4" y="4" width="24" height="24" rx="4" fill="black"/>
<path d="M16.0001 6C15.2501 6 14.5001 6.16667 13.8334 6.45833C13.0834 6.75 12.4584 7.16667 11.9584 7.70833C11.4167 8.25 11.0001 8.875 10.7084 9.58333C10.4167 10.2917 10.2917 11.0417 10.2917 11.7917V13.7083H14.9167V10.9583C14.9167 10.8333 14.9584 10.7083 15.0001 10.5833C15.0417 10.4583 15.1251 10.375 15.2084 10.25C15.2917 10.1667 15.4167 10.0833 15.5417 10.0417C15.6667 10 15.7917 9.95833 15.9167 9.95833H16.0834C16.2084 9.95833 16.3334 10 16.4584 10.0417C16.5834 10.0833 16.6667 10.1667 16.7917 10.25C16.8751 10.3333 16.9584 10.4583 17.0001 10.5833C17.0417 10.7083 17.0834 10.8333 17.0834 10.9583V18.375C17.7084 18.375 18.2917 18.25 18.8334 18.0417C19.3751 17.7917 19.9167 17.4583 20.3334 17.0417C20.7501 16.625 21.0834 16.0833 21.3334 15.5417C21.5834 14.9583 21.6667 14.375 21.6667 13.75V11.8333C21.6667 10.2917 21.0834 8.83333 20.0001 7.75C19.4584 7.20833 18.8334 6.79167 18.1667 6.5C17.4584 6.16667 16.7501 6 16.0001 6ZM16.0834 22.0833H15.9167C15.7917 22.0833 15.6667 22.0417 15.5417 22C15.4167 21.9583 15.3334 21.875 15.2084 21.7917C15.1251 21.7083 15.0417 21.5833 15.0001 21.4583C14.9584 21.3333 14.9167 21.2083 14.9167 21.0833V13.7083C14.2917 13.7083 13.7084 13.8333 13.1667 14.0417C12.6251 14.2917 12.0834 14.625 11.6667 15.0417C11.2501 15.4583 10.9167 16 10.6667 16.5417C10.4167 17.125 10.2917 17.7083 10.2917 18.3333V20.2083C10.2917 20.9583 10.4167 21.7083 10.7084 22.4167C11.0001 23.125 11.4167 23.75 11.9584 24.2917C12.5001 24.8333 13.1251 25.25 13.7917 25.5417C14.5001 25.8333 15.2501 26 16.0001 26C16.7501 26 17.5001 25.8333 18.2084 25.5417C18.9167 25.25 19.5417 24.8333 20.0417 24.2917C20.5834 23.75 21.0001 23.125 21.2917 22.4167C21.5834 21.7083 21.7084 20.9583 21.7084 20.2083V18.3333H17.0417V21.0833C17.0417 21.2083 17.0001 21.3333 16.9584 21.4583C16.9167 21.5833 16.8334 21.6667 16.7501 21.7917C16.6667 21.875 16.5417 21.9583 16.4167 22C16.3334 22.0833 16.2084 22.0833 16.0834 22.0833Z" fill="white"/>
</svg>
