<svg width="449" height="404" viewBox="0 0 449 404" fill="none" xmlns="http://www.w3.org/2000/svg">
<g filter="url(#filter0_d_11411_3491)">
<g filter="url(#filter1_ii_11411_3491)">
<rect width="259.483" height="259.489" rx="38.2258" transform="matrix(0.992319 0.123708 -0.1237 0.99232 99.1992 58.8867)" fill="white"/>
<path fill-rule="evenodd" clip-rule="evenodd" d="M214.218 124.144L170.909 140.288C168.281 141.268 166.794 142.945 166.383 144.887L166.336 144.881L153.149 250.662C153.095 250.838 153.056 251.096 153.021 251.47C152.822 253.57 153.807 255.827 156.237 257.507L194.257 283.789C197.983 286.365 204.046 287.121 208.291 285.539L251.599 269.395C254.612 268.272 256.228 266.109 256.334 263.812L269.372 159.221C270.09 156.851 269.102 154.133 266.272 152.176L228.252 125.894C224.526 123.318 218.462 122.562 214.218 124.144ZM159.473 252.076L195.15 276.624C197.298 278.124 199.543 279.604 201.867 279.901C204.008 280.175 206.217 279.426 208.449 278.669L208.451 278.669L208.453 278.668L208.456 278.667L208.458 278.666C208.599 278.619 208.739 278.571 208.881 278.523L249.914 263.171L255.732 216.499L214.999 231.683C210.755 233.265 204.691 232.509 200.965 229.933L165.306 205.283L159.473 252.076ZM167.05 191.297L205.908 176.812L171.795 153.23L167.05 191.297ZM262.213 164.514L257.462 202.625L223.309 179.015L262.213 164.514ZM224.589 131.118L262.609 157.401L262.696 157.462L262.755 157.506L262.718 157.522C262.677 157.539 262.633 157.556 262.588 157.573L219.279 173.716C217.027 174.556 213.201 174.079 211.224 172.712L173.204 146.429L173.117 146.368L173.058 146.324L173.095 146.309C173.136 146.292 173.18 146.275 173.225 146.258L216.534 130.114C218.786 129.275 222.612 129.751 224.589 131.118ZM217.98 183.165L256 209.448L256.086 209.509L256.146 209.553L256.109 209.569C256.089 209.577 256.069 209.585 256.049 209.593L256.02 209.604L255.978 209.619L212.67 225.763C212.41 225.86 212.129 225.94 211.832 226.002L217.227 182.728C217.499 182.861 217.752 183.007 217.98 183.165ZM210.829 181.909C210.507 181.973 210.204 182.057 209.925 182.161L166.616 198.305C166.571 198.322 166.527 198.339 166.486 198.356L166.449 198.371L166.508 198.415L166.595 198.476L204.614 224.759C204.86 224.929 205.133 225.084 205.429 225.226L210.829 181.909ZM271.429 139.386L267.442 144.382L269.581 146.046L270.276 146.595C270.865 147.065 271.348 147.462 271.784 147.838L271.897 147.936C273.883 149.664 274.921 151.011 275.516 152.677C276.235 154.688 276.381 157.433 275.872 161.518L282.272 162.316L282.307 162.032C283.425 152.697 281.68 147.926 276.015 143.042C275.485 142.585 274.915 142.117 274.224 141.568L273.822 141.25L271.429 139.386ZM155.106 265.489L151.118 270.485L148.726 268.621L148.324 268.303C147.633 267.755 147.062 267.286 146.533 266.829C140.868 261.946 139.123 257.174 140.241 247.839L140.276 247.555L146.676 248.353C146.167 252.438 146.313 255.183 147.032 257.194C147.627 258.86 148.665 260.207 150.651 261.935L150.764 262.033C151.2 262.409 151.683 262.806 152.272 263.276L152.967 263.825L155.106 265.489Z" fill="#1969FF"/>
</g>
<rect width="68.4871" height="68.4887" rx="34.2435" transform="matrix(0.992319 0.123708 -0.1237 0.99232 314.037 63.1465)" fill="#FF0000"/>
<path d="M340.699 115.781L344.062 88.8069L337.403 91.8169L338.163 85.7209L344.813 82.7797L350.451 83.4825L346.337 116.484L340.699 115.781Z" fill="white"/>
</g>
<defs>
<filter id="filter0_d_11411_3491" x="0.693359" y="0.292969" width="447.711" height="422.408" filterUnits="userSpaceOnUse" color-interpolation-filters="sRGB">
<feFlood flood-opacity="0" result="BackgroundImageFix"/>
<feColorMatrix in="SourceAlpha" type="matrix" values="0 0 0 0 0 0 0 0 0 0 0 0 0 0 0 0 0 0 127 0" result="hardAlpha"/>
<feOffset dy="7.8125"/>
<feGaussianBlur stdDeviation="33.2031"/>
<feComposite in2="hardAlpha" operator="out"/>
<feColorMatrix type="matrix" values="0 0 0 0 0 0 0 0 0 0 0 0 0 0 0 0 0 0 0.16 0"/>
<feBlend mode="normal" in2="BackgroundImageFix" result="effect1_dropShadow_11411_3491"/>
<feBlend mode="normal" in="SourceGraphic" in2="effect1_dropShadow_11411_3491" result="shape"/>
</filter>
<filter id="filter1_ii_11411_3491" x="67.0996" y="58.8867" width="289.59" height="292.781" filterUnits="userSpaceOnUse" color-interpolation-filters="sRGB">
<feFlood flood-opacity="0" result="BackgroundImageFix"/>
<feBlend mode="normal" in="SourceGraphic" in2="BackgroundImageFix" result="shape"/>
<feColorMatrix in="SourceAlpha" type="matrix" values="0 0 0 0 0 0 0 0 0 0 0 0 0 0 0 0 0 0 127 0" result="hardAlpha"/>
<feOffset dy="3.18548"/>
<feGaussianBlur stdDeviation="41.4113"/>
<feComposite in2="hardAlpha" operator="arithmetic" k2="-1" k3="1"/>
<feColorMatrix type="matrix" values="0 0 0 0 0 0 0 0 0 0 0 0 0 0 0 0 0 0 0.16 0"/>
<feBlend mode="normal" in2="shape" result="effect1_innerShadow_11411_3491"/>
<feColorMatrix in="SourceAlpha" type="matrix" values="0 0 0 0 0 0 0 0 0 0 0 0 0 0 0 0 0 0 127 0" result="hardAlpha"/>
<feMorphology radius="1.59274" operator="erode" in="SourceAlpha" result="effect2_innerShadow_11411_3491"/>
<feOffset/>
<feGaussianBlur stdDeviation="14.3347"/>
<feComposite in2="hardAlpha" operator="arithmetic" k2="-1" k3="1"/>
<feColorMatrix type="matrix" values="0 0 0 0 0 0 0 0 0 0 0 0 0 0 0 0 0 0 0.07 0"/>
<feBlend mode="normal" in2="effect1_innerShadow_11411_3491" result="effect2_innerShadow_11411_3491"/>
</filter>
</defs>
</svg>
