<svg width="32" height="32" viewBox="0 0 32 32" fill="none" xmlns="http://www.w3.org/2000/svg">
<path d="M24.6326 6.4308L17.9488 4.63184C17.3764 4.47687 16.779 4.43629 16.1909 4.51242C15.6027 4.58855 15.0354 4.7799 14.5213 5.07551C14.0071 5.37113 13.5564 5.76521 13.1947 6.23522C12.833 6.70522 12.5676 7.24192 12.4136 7.81461L12.0261 9.36448H8.49739C7.30461 9.36448 6.16068 9.83831 5.31725 10.6817C4.47383 11.5252 4 12.6691 4 13.8619L4 23.5485C4.01453 24.733 4.49433 25.8642 5.33579 26.6979C6.17726 27.5316 7.31286 28.0009 8.49739 28.0044H15.4164C16.4482 28.0044 17.4485 27.6496 18.2497 26.9995C19.0509 26.3495 19.6043 25.4438 19.817 24.4342C20.3894 24.5892 20.9868 24.6297 21.5749 24.5536C22.1631 24.4775 22.7304 24.2861 23.2445 23.9905C23.7586 23.6949 24.2094 23.3008 24.5711 22.8308C24.9327 22.3608 25.1982 21.8241 25.3522 21.2514L27.8569 11.8969C28.0046 11.3262 28.0384 10.7321 27.9563 10.1484C27.8741 9.5647 27.6777 9.00294 27.3782 8.49524C27.0787 7.98755 26.6821 7.54389 26.211 7.18965C25.7399 6.83541 25.2035 6.57754 24.6326 6.4308ZM17.8381 23.5485C17.8381 24.1908 17.583 24.8068 17.1288 25.2609C16.6747 25.7151 16.0587 25.9702 15.4164 25.9702H8.49739C7.85512 25.9702 7.23916 25.7151 6.78501 25.2609C6.33086 24.8068 6.07572 24.1908 6.07572 23.5485V13.8619C6.0702 13.5404 6.12877 13.221 6.248 12.9224C6.36723 12.6238 6.54474 12.3519 6.77016 12.1226C6.99559 11.8933 7.26441 11.7112 7.56096 11.5869C7.85751 11.4626 8.17585 11.3986 8.49739 11.3987H15.4164C15.738 11.3986 16.0563 11.4626 16.3529 11.5869C16.6494 11.7112 16.9182 11.8933 17.1437 12.1226C17.3691 12.3519 17.5466 12.6238 17.6658 12.9224C17.7851 13.221 17.8436 13.5404 17.8381 13.8619V23.5485ZM25.8089 11.3987L23.3734 20.7532C23.292 21.0679 23.1481 21.3629 22.9503 21.6207C22.7525 21.8785 22.5048 22.0939 22.2221 22.254C21.9393 22.4142 21.6272 22.5157 21.3043 22.5527C20.9815 22.5896 20.6545 22.5612 20.3428 22.4692L19.9138 22.3446V13.8619C19.9138 12.6691 19.44 11.5252 18.5966 10.6817C17.7532 9.83831 16.6092 9.36448 15.4164 9.36448H14.171L14.4478 8.3543C14.5281 8.04632 14.6687 7.75733 14.8614 7.50403C15.0541 7.25072 15.2951 7.03814 15.5705 6.87857C15.8459 6.719 16.1502 6.61561 16.4658 6.57438C16.7814 6.53316 17.102 6.5549 17.4091 6.63837L24.0929 8.42349C24.4015 8.50536 24.6907 8.6474 24.9441 8.84147C25.1976 9.03553 25.4101 9.27777 25.5696 9.55426C25.7291 9.83076 25.8323 10.1361 25.8734 10.4526C25.9144 10.7691 25.8925 11.0906 25.8089 11.3987Z" fill="#3A4861"/>
</svg>
