<svg width="32" height="32" viewBox="0 0 32 32" fill="none" xmlns="http://www.w3.org/2000/svg">
<g clip-path="url(#clip0_7128_1083)">
<path d="M15.9812 31.8882C24.7664 31.8882 31.8882 24.7664 31.8882 15.9812C31.8882 7.19601 24.7664 0.0742188 15.9812 0.0742188C7.19601 0.0742188 0.0742188 7.19601 0.0742188 15.9812C0.0742188 24.7664 7.19601 31.8882 15.9812 31.8882Z" fill="#FF4500"/>
<path d="M26.5857 15.9809C26.5857 14.6972 25.5438 13.6553 24.2601 13.6553C23.6275 13.6553 23.0694 13.8972 22.6601 14.3065C21.0787 13.1716 18.8833 12.4274 16.4647 12.3344L17.5252 7.36696L20.9671 8.09254C21.0043 8.96696 21.7299 9.67393 22.6229 9.67393C23.5345 9.67393 24.2787 8.92975 24.2787 8.01812C24.2787 7.10649 23.5345 6.3623 22.6229 6.3623C21.9717 6.3623 21.4136 6.7344 21.1531 7.29254L17.3019 6.47393C17.1903 6.45533 17.0787 6.47393 16.9857 6.52975C16.8926 6.58556 16.8368 6.67858 16.7996 6.79021L15.6275 12.3344C13.1531 12.4088 10.9392 13.1344 9.33916 14.3065C8.92985 13.9158 8.35311 13.6553 7.73916 13.6553C6.45543 13.6553 5.41357 14.6972 5.41357 15.9809C5.41357 16.9297 5.97171 17.7297 6.79032 18.1018C6.75311 18.3251 6.7345 18.567 6.7345 18.8088C6.7345 22.3809 10.8833 25.2646 16.0182 25.2646C21.1531 25.2646 25.3019 22.3809 25.3019 18.8088C25.3019 18.567 25.2833 18.3437 25.2461 18.1204C26.0089 17.7484 26.5857 16.9297 26.5857 15.9809ZM10.6787 17.6367C10.6787 16.7251 11.4229 15.9809 12.3345 15.9809C13.2461 15.9809 13.9903 16.7251 13.9903 17.6367C13.9903 18.5484 13.2461 19.2925 12.3345 19.2925C11.4229 19.2925 10.6787 18.5484 10.6787 17.6367ZM19.9252 22.0088C18.7903 23.1437 16.6322 23.2181 15.9996 23.2181C15.3671 23.2181 13.1903 23.1251 12.074 22.0088C11.9066 21.8414 11.9066 21.5623 12.074 21.3949C12.2415 21.2274 12.5206 21.2274 12.688 21.3949C13.395 22.1018 14.9206 22.3623 16.0182 22.3623C17.1159 22.3623 18.6229 22.1018 19.3485 21.3949C19.5159 21.2274 19.795 21.2274 19.9624 21.3949C20.0926 21.5809 20.0926 21.8414 19.9252 22.0088ZM19.6275 19.2925C18.7159 19.2925 17.9717 18.5484 17.9717 17.6367C17.9717 16.7251 18.7159 15.9809 19.6275 15.9809C20.5392 15.9809 21.2833 16.7251 21.2833 17.6367C21.2833 18.5484 20.5392 19.2925 19.6275 19.2925Z" fill="white"/>
</g>
<defs>
<clipPath id="clip0_7128_1083">
<rect width="32" height="32" fill="white"/>
</clipPath>
</defs>
</svg>
