<svg width="32" height="32" viewBox="0 0 32 32" fill="none" xmlns="http://www.w3.org/2000/svg">
<path d="M8.53103 20.5119C8.22335 20.8565 8.06746 21.2649 8.06746 21.7258C8.06746 22.2327 8.25138 22.6801 8.61376 23.0559C8.97613 23.4317 9.40756 23.6224 9.89642 23.6224C10.3853 23.6224 10.8454 23.4303 11.1982 23.0517C11.5483 22.6766 11.7254 22.2306 11.7254 21.7258C11.7254 21.6173 11.7124 21.5031 11.6871 21.3854C11.6748 21.3294 11.6597 21.2684 11.642 21.2032L15.2164 14.9657C15.3887 14.6679 15.4257 14.3425 15.3231 14.0241C15.2301 13.7355 15.0428 13.4831 14.7659 13.2747L14.7454 13.2598C14.2784 12.9549 13.8962 12.5302 13.609 11.9984C13.3225 11.4673 13.1776 10.8873 13.1776 10.2754C13.1776 9.28912 13.503 8.4723 14.1717 7.77885C14.8404 7.08541 15.628 6.7479 16.5791 6.7479C17.3743 6.7479 18.06 6.9833 18.6768 7.46758C19.2914 7.94973 19.6839 8.55596 19.8774 9.32315C19.954 9.61386 20.0921 9.85777 20.289 10.0485C20.5057 10.2584 20.7724 10.364 21.0828 10.364C21.4581 10.364 21.7904 10.2102 22.0441 9.91946C22.2314 9.70462 22.4263 9.33024 22.2895 8.76159C21.96 7.4378 21.2612 6.32886 20.2124 5.46453C19.1622 4.59808 17.939 4.15918 16.5798 4.15918C14.973 4.15918 13.5742 4.75974 12.4214 5.94455C11.268 7.13008 10.6827 8.58716 10.6827 10.2747C10.6827 11.1532 10.8659 11.9955 11.2283 12.779C11.5428 13.4597 11.9619 14.0865 12.4754 14.6445L9.47388 19.8886C9.1033 20.0155 8.78674 20.2254 8.53103 20.5119Z" fill="#3A4861"/>
<path d="M26.275 17.397C25.1318 16.2115 23.7274 15.6102 22.1009 15.6102C21.9354 15.6102 21.7419 15.6208 21.5279 15.6421C21.3987 15.6549 21.266 15.6719 21.1327 15.6924L18.35 10.761C18.3698 10.6795 18.3835 10.6114 18.391 10.5554C18.4033 10.4668 18.4094 10.3725 18.4094 10.2746C18.4094 9.74781 18.2303 9.29473 17.8782 8.92886C17.5254 8.563 17.0892 8.37794 16.5805 8.37794C16.0718 8.37794 15.6636 8.56158 15.3019 8.92461C14.9368 9.29118 14.7515 9.74497 14.7515 10.2746C14.7515 10.7561 14.9074 11.1744 15.2151 11.519C15.4749 11.8097 15.8031 12.0125 16.1935 12.1224L19.4255 17.7678C19.5875 18.0486 19.8254 18.2464 20.1331 18.357C20.4319 18.4648 20.7505 18.4662 21.0794 18.3613L21.0876 18.3584C21.2414 18.3053 21.4021 18.2648 21.5648 18.2379C21.7289 18.211 21.9094 18.1975 22.1022 18.1975C23.0533 18.1975 23.8409 18.535 24.5096 19.2284C25.1783 19.9219 25.5037 20.7387 25.5037 21.725C25.5037 22.7113 25.1783 23.5281 24.5096 24.2215C23.8409 24.915 23.0533 25.2525 22.1022 25.2525C21.88 25.2525 21.6544 25.2255 21.4315 25.1724C21.2011 25.117 20.9269 25.022 20.6185 24.8902L20.5946 24.8809C20.4825 24.8419 20.3656 24.7987 20.2473 24.7512C20.0784 24.6838 19.8917 24.6498 19.6907 24.6498C19.1157 24.6498 18.7089 24.9689 18.5455 25.5481C18.3835 26.1218 18.5708 26.6337 19.072 26.9889C19.4754 27.2754 19.956 27.4916 20.5009 27.6327C21.0322 27.7703 21.571 27.8405 22.1029 27.8405C23.7302 27.8405 25.1352 27.2335 26.2784 26.0374C27.4209 24.8419 28 23.3912 28 21.725C28 20.0587 27.4202 18.5818 26.277 17.3963L26.275 17.397Z" fill="#15EBB7"/>
<path d="M21.2934 23.4156C21.558 23.5532 21.8301 23.6227 22.1008 23.6227C22.6116 23.6227 23.0498 23.4305 23.4026 23.0519C23.7527 22.6768 23.9298 22.2308 23.9298 21.726C23.9298 21.2211 23.7506 20.7461 23.3985 20.3802C23.0457 20.0143 22.6095 19.8293 22.1008 19.8293C21.8301 19.8293 21.558 19.8988 21.2934 20.0363C21.0917 20.1413 20.9098 20.2738 20.7505 20.432H14.5464C14.1922 20.432 13.8928 20.5568 13.6555 20.8021C13.4183 21.0481 13.2986 21.3587 13.2986 21.726C13.2986 22.7123 12.9732 23.5291 12.3045 24.2225C11.6358 24.916 10.8481 25.2535 9.89709 25.2535C8.94604 25.2535 8.15839 24.916 7.48971 24.2225C6.82103 23.5291 6.49558 22.7123 6.49558 21.726C6.49558 21.1126 6.63643 20.5376 6.91402 20.0158C7.19229 19.4925 7.5615 19.0727 8.01344 18.7657C8.20762 18.6317 8.37855 18.4885 8.52145 18.3403C8.71973 18.1347 8.82023 17.844 8.82023 17.4767C8.82023 16.969 8.60076 16.579 8.18506 16.3493C7.89858 16.1912 7.44117 16.0806 6.88325 16.45C6.0204 16.9633 5.31685 17.688 4.7938 18.6033C4.26733 19.5244 4 20.5745 4 21.7253C4 23.3922 4.58458 24.8436 5.73733 26.0391C6.89009 27.2345 8.28967 27.8408 9.89709 27.8408C11.3206 27.8408 12.5916 27.3473 13.674 26.3745C14.6729 25.4768 15.3402 24.3494 15.6602 23.0193H20.7505C20.9098 23.1781 21.0923 23.3107 21.294 23.4149L21.2934 23.4156Z" fill="#3A4861"/>
</svg>
