<svg width="49" height="48" viewBox="0 0 49 48" fill="none" xmlns="http://www.w3.org/2000/svg">
<g clip-path="url(#clip0_6161_31361)">
<path d="M47.6367 22.5564C46.7554 25.7043 44.6837 29.0959 42.0351 30.3929C33.7867 34.4307 29.4994 25.7071 30.0178 19.3481C30.3288 15.5292 31.5672 12.4927 30.613 9.38715C30.3086 8.39643 29.6616 7.47963 28.6018 6.98331C25.6939 5.62107 22.8485 7.49403 21.5256 9.47835C20.0981 11.6182 19.428 14.2956 19.6094 16.7427C19.7832 19.1004 20.5992 20.646 21.8299 22.7571C23.4744 25.5775 25.2254 27.4092 25.8955 29.575C26.3275 30.9708 26.5733 33.2239 24.589 33.4131C22.4933 33.6137 22.5989 30.8662 22.5691 29.4876C22.4798 25.2982 19.8187 23.7891 17.8152 18.9631C16.645 16.1446 16.189 13.1638 16.8734 10.2214C17.8363 6.08091 20.1826 2.74299 24.4123 1.58811C27.7944 0.664586 31.7112 1.42203 33.852 4.38363C36.397 7.90491 35.9007 12.0588 34.8658 15.75C32.9506 22.5785 34.6613 25.8339 36.2578 26.6854C39.2808 28.2972 42.4527 26.4713 43.86 24.5359C45.3845 22.4393 46.2936 18.6147 46.1496 16.1667C46.0949 15.2316 46.0123 14.4271 45.8866 13.7052" fill="white"/>
<path d="M0.199219 24.0002C0.199219 25.7513 0.388339 27.4581 0.744499 29.1026C0.708019 27.8633 0.829939 26.6364 1.15058 25.4921C2.03186 22.3442 4.10354 18.9525 6.75218 17.6556C15.0005 13.6178 19.2879 22.3413 18.7695 28.7004C18.4584 32.5193 17.22 35.5557 18.1743 38.6613C18.4786 39.6521 19.1256 40.5689 20.1855 41.0652C23.0933 42.4274 25.9387 40.5545 27.2616 38.5701C28.6891 36.4303 29.3592 33.7529 29.1778 31.3058C29.004 28.9481 28.188 27.4025 26.9583 25.2914C25.3138 22.4709 23.5627 20.6393 22.8927 18.4735C22.4607 17.0777 22.2149 14.8245 24.1992 14.6354C26.2949 14.4348 26.1893 17.1823 26.2191 18.5609C26.3083 22.7503 28.9695 24.2594 30.973 29.0853C32.1432 31.9039 32.5992 34.8847 31.9147 37.8271C30.9519 41.9676 28.6056 45.3055 24.3759 46.4604C20.9938 47.3839 17.077 46.6265 14.9362 43.6649C12.3912 40.1436 12.8875 35.9897 13.9224 32.2985C15.8376 25.47 14.1269 22.2146 12.5304 21.3631C9.50738 19.7522 6.33554 21.5772 4.92818 23.5125C3.4037 25.6092 2.49458 29.4338 2.63858 31.8818C2.72786 33.4005 2.89106 34.5756 3.1925 35.6124" fill="white"/>
<path d="M24.1992 48C37.4541 48 48.1992 37.2548 48.1992 24C48.1992 10.7452 37.4541 0 24.1992 0C10.9444 0 0.199219 10.7452 0.199219 24C0.199219 37.2548 10.9444 48 24.1992 48Z" fill="#E6FA36"/>
<path d="M31.9148 37.8281C32.5992 34.8857 32.1432 31.9049 30.973 29.0863C28.9695 24.2604 26.3074 22.7503 26.2191 18.5618C26.1903 17.1833 26.2949 14.4358 24.1992 14.6364C22.2149 14.8265 22.4607 17.0796 22.8927 18.4754C23.5628 20.6412 25.3148 22.4729 26.9583 25.2934C28.189 27.4044 29.004 28.95 29.1778 31.3078C29.3583 33.7548 28.6892 36.4322 27.2616 38.5721C25.9378 40.5564 23.0933 42.4293 20.1855 41.0671C19.1256 40.5708 18.4786 39.653 18.1743 38.6633C17.221 35.5567 18.4584 32.5212 18.7695 28.7023C19.2879 22.3433 14.9996 13.6198 6.7522 17.6575C4.10356 18.9545 2.03188 22.3452 1.1506 25.494C0.829962 26.6393 0.708042 27.8652 0.744522 29.1046C1.24564 31.4162 2.07892 33.6041 3.19252 35.6153C2.89108 34.5775 2.72788 33.4034 2.6386 31.8847C2.4946 29.4377 3.40468 25.6121 4.9282 23.5154C6.3346 21.5801 9.5074 19.7542 12.5304 21.366C14.1269 22.2175 15.8376 25.4729 13.9224 32.3014C12.8866 35.9935 12.3903 40.1465 14.9362 43.6677C17.077 46.6293 20.9938 47.3868 24.3759 46.4633C28.6056 45.3065 30.9528 41.9686 31.9148 37.8281Z" fill="black"/>
<path d="M47.6366 22.5564C47.8017 21.9679 47.9131 21.3574 47.9784 20.7353C47.9784 20.7382 47.9793 20.7401 47.9793 20.742C47.6414 18.2546 46.9233 15.8882 45.8846 13.7033C46.0104 14.4262 46.0929 15.2297 46.1477 16.1647C46.2917 18.6118 45.3816 22.4374 43.8581 24.534C42.4517 26.4694 39.2789 28.2953 36.2558 26.6834C34.6593 25.8319 32.9486 22.5766 34.8638 15.7481C35.8997 12.0559 36.396 7.90295 33.8501 4.38167C31.7093 1.42007 27.7925 0.662633 24.4104 1.58615C20.1806 2.74103 17.8334 6.07895 16.8715 10.2194C16.187 13.1618 16.643 16.1426 17.8133 18.9612C19.8168 23.7871 22.4789 25.2972 22.5672 29.4857C22.596 30.8642 22.4913 33.6118 24.587 33.4111C26.5713 33.221 26.3256 30.9679 25.8936 29.573C25.2235 27.4073 23.4715 25.5756 21.828 22.7551C20.5973 20.6441 19.7822 19.0985 19.6075 16.7407C19.427 14.2937 20.0961 11.6162 21.5237 9.47639C22.8475 7.49207 25.692 5.61911 28.5998 6.98135C29.6597 7.47767 30.3067 8.39543 30.611 9.38519C31.5643 12.4918 30.3269 15.5273 30.0158 19.3462C29.4974 25.7052 33.7857 34.4287 42.0331 30.391C44.6827 29.0959 46.7553 25.7042 47.6366 22.5564Z" fill="black"/>
</g>
<defs>
<clipPath id="clip0_6161_31361">
<rect width="48" height="48" fill="white" transform="translate(0.199219)"/>
</clipPath>
</defs>
</svg>
