<svg width="32" height="32" viewBox="0 0 32 32" fill="none" xmlns="http://www.w3.org/2000/svg">
<g clip-path="url(#clip0_7044_4402)">
<rect x="4" y="4" width="24" height="24" rx="4" fill="#E6FA36"/>
<path d="M27.7182 15.2781C27.2776 16.852 26.2417 18.5478 24.9174 19.1963C20.7933 21.2152 18.6496 16.8534 18.9088 13.6739C19.0643 11.7645 19.6835 10.2463 19.2064 8.69345C19.0542 8.19809 18.7307 7.73969 18.2008 7.49153C16.7469 6.81041 15.3241 7.74689 14.6627 8.73905C13.9489 9.80897 13.6139 11.1477 13.7046 12.3712C13.7915 13.5501 14.1995 14.3229 14.8149 15.3784C15.6371 16.7886 16.5126 17.7045 16.8477 18.7874C17.0637 19.4853 17.1865 20.6118 16.1944 20.7064C15.1465 20.8067 15.1993 19.433 15.1845 18.7437C15.1398 16.649 13.8093 15.8944 12.8075 13.4815C12.2224 12.0722 11.9944 10.5818 12.3366 9.11057C12.8181 7.04033 13.9912 5.37137 16.1061 4.79393C17.7971 4.33217 19.7555 4.71089 20.8259 6.19169C22.0984 7.95233 21.8502 10.0293 21.3328 11.8749C20.3752 15.2891 21.2305 16.9168 22.0288 17.3426C23.5403 18.1485 25.1262 17.2355 25.8299 16.2678C26.5921 15.2195 27.0467 13.3072 26.9747 12.0832C26.9473 11.6157 26.9061 11.2134 26.8432 10.8525" fill="white"/>
<path d="M4 16C4 16.8755 4.09456 17.7289 4.27264 18.5512C4.2544 17.9315 4.31536 17.3181 4.47568 16.7459C4.91632 15.172 5.95216 13.4761 7.27648 12.8277C11.4006 10.8088 13.5443 15.1705 13.2851 18.3501C13.1296 20.2595 12.5104 21.7777 12.9875 23.3305C13.1397 23.8259 13.4632 24.2843 13.9931 24.5325C15.447 25.2136 16.8698 24.2771 17.5312 23.2849C18.245 22.215 18.58 20.8763 18.4893 19.6528C18.4024 18.4739 17.9944 17.7011 17.3795 16.6456C16.5573 15.2353 15.6818 14.3195 15.3467 13.2366C15.1307 12.5387 15.0078 11.4121 16 11.3176C17.0478 11.2173 16.995 12.591 17.0099 13.2803C17.0546 15.375 18.3851 16.1296 19.3869 18.5425C19.972 19.9518 20.2 21.4422 19.8578 22.9134C19.3763 24.9837 18.2032 26.6526 16.0883 27.2301C14.3973 27.6918 12.4389 27.3131 11.3685 25.8323C10.096 24.0717 10.3442 21.9947 10.8616 20.1491C11.8192 16.7349 10.9638 15.1072 10.1656 14.6814C8.65408 13.876 7.06816 14.7885 6.36448 15.7561C5.60224 16.8045 5.14768 18.7168 5.21968 19.9408C5.26432 20.7001 5.34592 21.2877 5.49664 21.8061" fill="white"/>
<path d="M16 28C22.6274 28 28 22.6274 28 16C28 9.37258 22.6274 4 16 4C9.37258 4 4 9.37258 4 16C4 22.6274 9.37258 28 16 28Z" fill="#E6FA36"/>
<path d="M19.8578 22.9139C20.2 21.4427 19.972 19.9523 19.3869 18.543C18.3851 16.1301 17.0541 15.375 17.0099 13.2808C16.9955 12.5915 17.0479 11.2178 16 11.3181C15.0079 11.4131 15.1307 12.5397 15.3467 13.2376C15.6818 14.3205 16.5578 15.2363 17.3795 16.6466C17.9949 17.7021 18.4024 18.4749 18.4893 19.6538C18.5795 20.8773 18.245 22.216 17.5312 23.2859C16.8693 24.2781 15.4471 25.2146 13.9931 24.5334C13.4632 24.2853 13.1397 23.8264 12.9875 23.3315C12.5109 21.7782 13.1296 20.2605 13.2851 18.351C13.5443 15.1715 11.4002 10.8098 7.27649 12.8286C5.95217 13.4771 4.91633 15.1725 4.47569 16.7469C4.31537 17.3195 4.25441 17.9325 4.27265 18.5522C4.52321 19.708 4.93985 20.8019 5.49665 21.8075C5.34593 21.2886 5.26433 20.7016 5.21969 19.9422C5.14769 18.7187 5.60273 16.8059 6.36449 15.7576C7.06769 14.7899 8.65409 13.877 10.1656 14.6829C10.9639 15.1086 11.8192 16.7363 10.8616 20.1506C10.3437 21.9966 10.0955 24.0731 11.3685 25.8338C12.4389 27.3146 14.3973 27.6933 16.0883 27.2315C18.2032 26.6531 19.3768 24.9842 19.8578 22.9139Z" fill="black"/>
<path d="M27.7182 15.2781C27.8008 14.9838 27.8565 14.6786 27.8891 14.3675C27.8891 14.369 27.8896 14.3699 27.8896 14.3709C27.7206 13.1272 27.3616 11.944 26.8422 10.8515C26.9051 11.213 26.9464 11.6147 26.9737 12.0822C27.0457 13.3058 26.5907 15.2186 25.8289 16.2669C25.1257 17.2346 23.5393 18.1475 22.0278 17.3416C21.2296 16.9158 20.3742 15.2882 21.3318 11.8739C21.8497 10.0278 22.0979 7.95135 20.8249 6.19071C19.7545 4.70991 17.7961 4.33119 16.1051 4.79295C13.9902 5.37039 12.8166 7.03935 12.3357 9.10959C11.9934 10.5808 12.2214 12.0712 12.8065 13.4805C13.8083 15.8934 15.1393 16.6485 15.1835 18.7427C15.1979 19.432 15.1456 20.8058 16.1934 20.7054C17.1856 20.6104 17.0627 19.4838 16.8467 18.7864C16.5117 17.7035 15.6356 16.7877 14.8139 15.3774C14.1985 14.3219 13.791 13.5491 13.7037 12.3702C13.6134 11.1467 13.948 9.80799 14.6617 8.73807C15.3236 7.74591 16.7459 6.80943 18.1998 7.49055C18.7297 7.73871 19.0532 8.19759 19.2054 8.69247C19.6821 10.2458 19.0633 11.7635 18.9078 13.673C18.6486 16.8525 20.7928 21.2142 24.9165 19.1954C26.2413 18.5478 27.2776 16.852 27.7182 15.2781Z" fill="black"/>
</g>
<defs>
<clipPath id="clip0_7044_4402">
<rect x="4" y="4" width="24" height="24" rx="4" fill="white"/>
</clipPath>
</defs>
</svg>
