<svg width="33" height="32" viewBox="0 0 33 32" fill="none" xmlns="http://www.w3.org/2000/svg">
<path d="M14.792 25.1172L15.817 18.0672H12.167C11.9836 18.0672 11.8503 17.9839 11.767 17.8172C11.6836 17.6505 11.6836 17.4922 11.767 17.3422L17.892 7.11719H18.917L17.892 14.1422H21.492C21.6753 14.1422 21.8128 14.2255 21.9045 14.3922C21.9961 14.5589 22.0003 14.7172 21.917 14.8672L15.817 25.1172H14.792Z" fill="#3A4861" stroke="#3A4861"/>
<path d="M5.92908 9.19336C8.12908 9.19336 9.92908 7.39336 9.92908 5.19336C9.92908 7.39336 11.7291 9.19336 13.9291 9.19336C11.7291 9.19336 9.92908 10.9934 9.92908 13.1934C9.92908 10.9934 8.12908 9.19336 5.92908 9.19336Z" fill="#397DFC"/>
<path d="M19.5426 22.8071C21.7426 22.8071 23.5426 21.0071 23.5426 18.8071C23.5426 21.0071 25.3426 22.8071 27.5426 22.8071C25.3426 22.8071 23.5426 24.6071 23.5426 26.8071C23.5426 24.6071 21.7426 22.8071 19.5426 22.8071Z" fill="#397DFC"/>
</svg>
