<svg width="49" height="48" viewBox="0 0 49 48" fill="none" xmlns="http://www.w3.org/2000/svg">
<g clip-path="url(#clip0_12322_7392)">
<path d="M24.303 47.9944C17.9541 47.9904 11.8661 45.4617 7.37472 40.9631C2.88335 36.4645 0.355463 30.3636 0.345703 23.9988C0.355462 17.6337 2.88322 11.5324 7.37451 7.03338C11.8658 2.53432 17.9538 0.00488493 24.303 0C30.6522 0.00488493 36.7402 2.53432 41.2315 7.03338C45.7228 11.5324 48.2505 17.6337 48.2603 23.9988C48.2505 30.3636 45.7227 36.4645 41.2314 40.9631C36.74 45.4617 30.652 47.9904 24.303 47.9944ZM24.303 1.84748C18.4424 1.85155 12.8226 4.18608 8.6767 8.33887C4.53086 12.4916 2.19752 18.1234 2.18858 23.9988C2.19427 29.8748 4.52669 35.5082 8.67333 39.6613C12.82 43.8142 18.4416 46.147 24.303 46.147C30.1644 46.147 35.786 43.8142 39.9327 39.6613C44.0794 35.5082 46.4117 29.8748 46.4174 23.9988C46.4085 18.1234 44.0751 12.4916 39.9292 8.33887C35.7834 4.18608 30.1637 1.85155 24.303 1.84748Z" fill="url(#paint0_linear_12322_7392)"/>
<path d="M27.332 44.1975C22.072 44.1935 17.0284 42.098 13.3076 38.3707C9.58668 34.6434 7.49249 29.5887 7.48438 24.3156C7.49249 19.0424 9.58668 13.9877 13.3076 10.2605C17.0284 6.53319 22.072 4.43766 27.332 4.43359C32.5921 4.43766 37.6357 6.53319 41.3566 10.2605C45.0774 13.9877 47.1716 19.0424 47.1798 24.3156C47.1716 29.5887 45.0774 34.6434 41.3566 38.3707C37.6357 42.098 32.5921 44.1935 27.332 44.1975ZM27.332 5.86848C22.4519 5.87256 17.7726 7.81702 14.3207 11.2753C10.8687 14.7336 8.92603 19.4233 8.91874 24.3156C8.92685 29.2074 10.87 33.8963 14.3218 37.3539C17.7736 40.8115 22.4525 42.7555 27.332 42.7596C32.2117 42.7555 36.8905 40.8115 40.3423 37.3539C43.7942 33.8963 45.7373 29.2074 45.7454 24.3156C45.7373 19.4237 43.7942 14.7348 40.3423 11.2772C36.8905 7.81964 32.2117 5.87564 27.332 5.87157V5.86848Z" fill="url(#paint1_linear_12322_7392)"/>
<path d="M30.3612 40.4044C26.1903 40.4012 22.191 38.7395 19.2406 35.784C16.2902 32.8285 14.6296 28.8205 14.623 24.6392C14.6296 20.4579 16.2902 16.4499 19.2406 13.4944C22.191 10.5389 26.1903 8.87732 30.3612 8.87402C34.5323 8.8765 38.532 10.5379 41.4826 13.4935C44.4332 16.4492 46.0935 20.4576 46.0992 24.6392C46.0927 28.8205 44.4321 32.8285 41.4817 35.784C38.5313 38.7395 34.532 40.4012 30.3612 40.4044ZM30.3612 9.89942C26.4613 9.90183 22.7216 11.4552 19.9629 14.2185C17.204 16.9819 15.6515 20.7296 15.6458 24.6392C15.6523 28.5483 17.2053 32.2952 19.964 35.0579C22.7227 37.8206 26.4619 39.3735 30.3612 39.376C34.2605 39.3735 37.9997 37.8206 40.7584 35.0579C43.517 32.2952 45.07 28.5483 45.0766 24.6392C45.0709 20.7296 43.5182 16.9819 40.7594 14.2185C38.0006 11.4552 34.261 9.90183 30.3612 9.89942Z" fill="url(#paint2_linear_12322_7392)"/>
<path d="M33.3902 36.6074C30.3085 36.6049 27.3535 35.3772 25.1735 33.1935C22.9936 31.0099 21.7666 28.0485 21.7617 24.959C21.7658 21.8691 22.9924 18.9069 25.1725 16.7226C27.3526 14.5382 30.3079 13.31 33.3902 13.3076C36.4724 13.31 39.4279 14.5382 41.6079 16.7226C43.788 18.9069 45.0146 21.8691 45.0187 24.959C45.0138 28.0485 43.7869 31.0099 41.6069 33.1935C39.427 35.3772 36.4719 36.6049 33.3902 36.6074ZM33.3902 13.9234C30.4708 13.9259 27.6717 15.0891 25.6069 17.158C23.542 19.2269 22.3801 22.0324 22.376 24.959C22.3809 27.8852 23.5432 30.6899 25.6079 32.7581C27.6727 34.8263 30.4714 35.9891 33.3902 35.9915C36.309 35.9891 39.1077 34.8263 41.1724 32.7581C43.2373 30.6899 44.3995 27.8852 44.4044 24.959C44.4003 22.0324 43.2385 19.2269 41.1737 17.158C39.1088 15.0891 36.3095 13.9259 33.3902 13.9234Z" fill="url(#paint3_linear_12322_7392)"/>
</g>
<defs>
<linearGradient id="paint0_linear_12322_7392" x1="48.5598" y1="42.6305" x2="-4.2739" y2="6.93971" gradientUnits="userSpaceOnUse">
<stop stop-color="#0F0C48"/>
<stop offset="1" stop-color="#262769"/>
</linearGradient>
<linearGradient id="paint1_linear_12322_7392" x1="47.4279" y1="39.7535" x2="3.65556" y2="10.1857" gradientUnits="userSpaceOnUse">
<stop stop-color="#0F0C48"/>
<stop offset="1" stop-color="#262769"/>
</linearGradient>
<linearGradient id="paint2_linear_12322_7392" x1="46.296" y1="36.8805" x2="11.5871" y2="13.4349" gradientUnits="userSpaceOnUse">
<stop stop-color="#0F0C48"/>
<stop offset="1" stop-color="#262769"/>
</linearGradient>
<linearGradient id="paint3_linear_12322_7392" x1="45.164" y1="34.0034" x2="19.5167" y2="16.6808" gradientUnits="userSpaceOnUse">
<stop stop-color="#0F0C48"/>
<stop offset="1" stop-color="#262769"/>
</linearGradient>
<clipPath id="clip0_12322_7392">
<rect width="47.9312" height="48" fill="white" transform="translate(0.333984)"/>
</clipPath>
</defs>
</svg>
