<svg width="32" height="32" viewBox="0 0 32 32" fill="none" xmlns="http://www.w3.org/2000/svg">
<path fill-rule="evenodd" clip-rule="evenodd" d="M26.3892 7.21912C27.536 7.52721 28.4431 8.43436 28.7512 9.58112C29.3161 11.6693 29.3332 15.9996 29.3332 15.9996C29.3332 15.9996 29.3332 20.3471 28.7683 22.4181C28.4603 23.5649 27.5531 24.472 26.4063 24.7801C24.3353 25.3449 15.9998 25.3449 15.9998 25.3449C15.9998 25.3449 7.66436 25.3449 5.59333 24.7801C4.44656 24.472 3.53942 23.5649 3.23133 22.4181C2.6665 20.33 2.6665 15.9996 2.6665 15.9996C2.6665 15.9996 2.6665 11.6693 3.21421 9.59824C3.5223 8.45147 4.42945 7.54433 5.57622 7.23624C7.64725 6.67141 15.9827 6.6543 15.9827 6.6543C15.9827 6.6543 24.3182 6.6543 26.3892 7.21912ZM20.2446 15.9996L13.3297 20.0047V11.9945L20.2446 15.9996Z" fill="#FF0000"/>
<path fill-rule="evenodd" clip-rule="evenodd" d="M20.2449 16.0003L13.3301 20.0054V11.9951L20.2449 16.0003Z" fill="white"/>
</svg>
